<svg version="1.1" viewBox="0.0 0.0 226.77165354330708 226.77165354330708" fill="none" stroke="none" stroke-linecap="square" stroke-miterlimit="10" xmlns:xlink="http://www.w3.org/1999/xlink" xmlns="http://www.w3.org/2000/svg"><clipPath id="p.0"><path d="m0 0l226.77165 0l0 226.77165l-226.77165 0l0 -226.77165z" clip-rule="nonzero"/></clipPath><g clip-path="url(#p.0)"><path fill="#000000" fill-opacity="0.0" d="m0 0l226.77165 0l0 226.77165l-226.77165 0z" fill-rule="evenodd"/><path fill="#000000" fill-opacity="0.0" d="m-15.637795 75.70755l258.04724 0l0 99.11812l-258.04724 0z" fill-rule="evenodd"/><path fill="#f3f3f3" d="m9.723662 148.70755l0 -99.796875l20.671875 0l0 37.999996q3.859375 -3.796875 8.75 -6.09375q4.90625 -2.3125 11.515625 -2.3125q5.390625 0 9.984375 2.34375q4.609375 2.328125 7.9375 6.828125q3.34375 4.5 5.234375 11.03125q1.90625 6.53125 1.90625 14.875q0 7.796875 -2.171875 14.40625q-2.171875 6.59375 -6.078125 11.453125q-3.890625 4.859375 -9.328125 7.59375q-5.421875 2.734375 -12.03125 2.734375q-3.0625 0 -5.5 -0.609375q-2.421875 -0.59375 -4.453125 -1.6875q-2.03125 -1.09375 -3.734375 -2.625q-1.703125 -1.546875 -3.296875 -3.34375l-0.734375 3.46875q-0.46875 2.140625 -1.703125 2.9375q-1.234375 0.796875 -3.234375 0.796875l-13.734376 0zm33.734375 -54.671875q-2.265625 0 -4.109375 0.4375q-1.828125 0.4375 -3.390625 1.234375q-1.5625 0.796875 -2.90625 2.03125q-1.328125 1.234375 -2.65625 2.84375l0 29.328125q2.328125 2.59375 5.0625 3.640625q2.734375 1.03125 5.734375 1.03125q2.859375 0 5.25 -1.140625q2.40625 -1.140625 4.171875 -3.640625q1.78125 -2.5 2.78125 -6.5q1.0 -4.0 1.0 -9.71875q0 -5.46875 -0.8125 -9.203125q-0.796875 -3.734375 -2.234375 -6.03125q-1.421875 -2.3125 -3.421875 -3.3125q-2.0 -1.0 -4.46875 -1.0z" fill-rule="nonzero"/><path fill="#39ff14" d="m109.58513 130.70755l36.0 0l0 18.0l-58.53125 0l0 -97.125l22.53125 0l0 79.125z" fill-rule="nonzero"/><path fill="#f3f3f3" d="m176.92296 48.91068l0 55.937496l3.0625 0q1.9375 0 2.96875 -0.53125q1.03125 -0.546875 1.96875 -1.9375l13.0625 -19.46875q1.125 -1.734375 2.6875 -2.53125q1.578125 -0.796875 3.96875 -0.796875l18.9375 0l-17.859375 24.59375q-1.265625 1.734375 -2.765625 3.078125q-1.5 1.328125 -3.234375 2.390625q3.0 2.265625 5.203125 6.0l19.453125 33.0625l-18.65625 0q-2.34375 0 -4.046875 -0.765625q-1.6875 -0.765625 -2.75 -2.703125l-13.078125 -24.46875q-0.921875 -1.65625 -1.921875 -2.15625q-1.0 -0.5 -3.0 -0.5l-4.0 0l0 30.59375l-20.671875 0l0 -99.796875l20.671875 0z" fill-rule="nonzero"/><path fill="#000000" fill-opacity="0.0" d="m87.03773 51.94599l58.267708 0l0 96.53544l-58.267708 0z" fill-rule="evenodd"/><path stroke="#39ff14" stroke-width="2.0" stroke-linejoin="round" stroke-linecap="butt" d="m87.03773 51.94599l58.267708 0l0 96.53544l-58.267708 0z" fill-rule="evenodd"/></g></svg>